<?xml version="1.0" standalone="no"?><!DOCTYPE svg PUBLIC "-//W3C//DTD SVG 1.1//EN" "http://www.w3.org/Graphics/SVG/1.1/DTD/svg11.dtd"><svg t="1577072005021" class="icon" viewBox="0 0 1024 1024" version="1.1" xmlns="http://www.w3.org/2000/svg" p-id="13920" xmlns:xlink="http://www.w3.org/1999/xlink" width="200" height="200"><defs><style type="text/css"></style></defs><path d="M319.630222 113.322667C329.585778 59.733333 380.16 13.880889 452.124444 13.880889c37.319111 0 64.483556 19.484444 80.355556 44.856889 11.320889 18.033778 16.924444 38.769778 18.915556 58.595555a127.061333 127.061333 0 0 1 39.082666-6.485333c36.750222 0 64.284444 18.944 80.981334 43.463111 15.815111 23.239111 22.243556 51.598222 22.243555 77.425778v29.127111c0.085333 96.256 0.284444 192.483556 0.568889 288.711111-0.056889 12.913778 1.080889 25.799111 3.328 38.542222 8.049778-7.367111 15.36-14.791111 23.438222-23.068444l12.430222-12.657778c13.198222-13.198222 28.672-27.790222 47.047112-40.021333 39.736889-26.424889 88.519111-38.542222 153.799111-21.959111 25.998222 6.570667 42.467556 24.632889 51.285333 43.292444 8.334222 17.834667 10.524444 37.489778 9.841778 54.840889-1.336889 32.881778-14.08 73.159111-41.301334 98.645333l-1.649777 1.706667a5018.936889 5018.936889 0 0 1-107.576889 104.533333 2560.369778 2560.369778 0 0 1-90.965334 82.147556c-27.420444 23.352889-55.068444 45.226667-76.487111 57.287111-72.874667 49.265778-160.796444 75.946667-250.993777 76.572444a43.633778 43.633778 0 0 1-44.259556-43.008 43.605333 43.605333 0 0 1 43.690667-43.548444c73.699556-0.512 144.924444-22.528 203.178666-62.293333a44.942222 44.942222 0 0 1 3.726223-2.275556c12.743111-6.940444 34.986667-23.836444 63.658666-48.184889a2475.633778 2475.633778 0 0 0 87.694222-79.274666 4810.382222 4810.382222 0 0 0 105.528889-102.570667l1.649778-1.706667 0.540445-0.512 1.564444-1.507555c3.982222-4.266667 6.997333-9.244444 8.874667-14.705778a78.506667 78.506667 0 0 0 5.290666-24.746667 45.909333 45.909333 0 0 0-0.938666-12.231111c-37.546667-8.305778-59.107556-0.597333-76.970667 11.264-10.837333 7.224889-21.333333 16.782222-33.479111 29.013333-3.100444 3.015111-6.371556 6.371556-9.813333 9.955556-9.244444 9.386667-19.740444 20.110222-30.236445 29.639111l-0.085333 0.113778c-18.033778 16.156444-40.448 30.72-66.531556 31.288889-30.492444 0.654222-50.688-17.436444-61.525333-34.531556-10.069333-15.928889-15.047111-34.759111-17.777778-50.545778a302.108444 302.108444 0 0 1-3.953778-49.152c-0.341333-96.312889-0.512-192.654222-0.512-288.995555V231.736889c0-12.942222-3.413333-23.466667-7.395555-29.297778a13.283556 13.283556 0 0 0-4.096-4.209778 7.111111 7.111111 0 0 0-3.811556-0.824889 43.605333 43.605333 0 0 0-26.680889 10.24c-7.395556 5.859556-11.633778 14.705778-11.52 24.064V457.955556c0 23.893333-19.683556 43.292444-43.975111 43.292444a43.633778 43.633778 0 0 1-43.946666-43.292444V134.769778c0-14.279111-3.214222-25.031111-6.741334-30.634667a9.728 9.728 0 0 0-2.787555-3.242667 1.763556 1.763556 0 0 0-0.455111-0.227555 8.647111 8.647111 0 0 0-2.190223-0.199111c-36.494222 0-46.734222 23.04-46.364444 32.881778v1.621333l-0.284445 75.690667c0.056889 1.251556 0.056889 2.503111 0 3.754666l-0.967111 246.442667a43.633778 43.633778 0 0 1-44.145777 43.093333 43.633778 43.633778 0 0 1-43.776-43.434666l0.938666-243.712c-2.076444-7.964444-4.977778-12.430222-7.310222-14.705778-1.706667-1.649778-5.461333-4.693333-16.213333-4.693334a38.172444 38.172444 0 0 0-25.031111 8.817778c-5.262222 4.664889-10.069333 12.231111-10.069334 25.514667v288.369778c0 23.893333-19.655111 43.292444-43.946666 43.292444a43.633778 43.633778 0 0 1-43.946667-43.292444v-164.977778a30.179556 30.179556 0 0 0-4.352-5.603556 11.178667 11.178667 0 0 0-4.892445-3.128889c-0.967111-0.256-4.408889-1.024-11.946666 1.422223-16.725333 5.518222-24.661333 14.592-29.070222 26.424889-5.176889 13.852444-6.257778 34.190222-1.024 59.733333 39.879111 195.640889 61.297778 292.807111 78.506666 340.650667 15.189333 42.211556 44.999111 79.672889 85.902222 106.552888 20.195556 13.283556 25.656889 40.192 12.174223 60.074667-13.482667 19.882667-40.789333 25.230222-60.984889 11.946667-55.836444-36.721778-98.133333-88.974222-119.978667-149.703111-19.825778-55.153778-42.666667-160.142222-81.777778-352.483556-7.054222-34.531556-8.135111-72.419556 4.636445-106.552889 13.454222-36.124444 41.301333-64.853333 83.854222-78.791111a113.493333 113.493333 0 0 1 48.924444-5.461333V231.708444c0-78.819556 63.886222-120.860444 123.022223-120.860444 8.903111 0 17.436444 0.853333 25.6 2.474667z" p-id="13921" fill="#1afa29"></path></svg>