<?xml version="1.0" standalone="no"?><!DOCTYPE svg PUBLIC "-//W3C//DTD SVG 1.1//EN" "http://www.w3.org/Graphics/SVG/1.1/DTD/svg11.dtd"><svg t="1577072083106" class="icon" viewBox="0 0 1024 1024" version="1.1" xmlns="http://www.w3.org/2000/svg" p-id="15344" xmlns:xlink="http://www.w3.org/1999/xlink" width="200" height="200"><defs><style type="text/css"></style></defs><path d="M512 512m-512 0a512 512 0 1 0 1024 0 512 512 0 1 0-1024 0Z" fill="#42A5F5" p-id="15345"></path><path d="M998.4 671.8464L518.4512 192.3072l-94.4128 584.4992L648.192 1005.568a512.9216 512.9216 0 0 0 350.208-333.7216z" fill="#3D99D8" p-id="15346"></path><path d="M597.6064 778.24H428.9536a7.3728 7.3728 0 0 1-7.3728-7.9872L450.56 392.3968a7.3728 7.3728 0 0 0-1.9456-5.5296l-15.872-17.3056a7.3728 7.3728 0 0 1 5.4272-12.3904h149.7088a7.3728 7.3728 0 0 1 5.2224 12.5952l-16.896 17.1008a7.3728 7.3728 0 0 0-2.1504 5.8368l30.72 377.6512a7.3728 7.3728 0 0 1-7.168 7.8848zM457.1136 289.1776h110.08v67.7888H457.1136z" fill="#FFFFFF" p-id="15347"></path><path d="M509.7472 231.424l-58.368 49.4592c-3.584 3.072-1.1264 8.3968 3.8912 8.3968H569.344c4.9152 0 7.4752-5.2224 3.9936-8.2944l-55.808-49.5616a6.144 6.144 0 0 0-7.7824 0z" fill="#FFFFFF" p-id="15348"></path><path d="M582.144 491.3152H442.6752l7.7824-102.0928h123.2896l8.3968 102.0928z" fill="#FFA726" p-id="15349"></path><path d="M597.4016 778.24h-167.936a7.8848 7.8848 0 0 1-7.8848-8.4992l10.24-138.6496H593.92l11.0592 138.9568a7.5776 7.5776 0 0 1-7.5776 8.192z" fill="#FF7043" p-id="15350"></path><path d="M421.5808 491.3152m7.2704 0l167.1168 0q7.2704 0 7.2704 7.2704l0 1.9456q0 7.2704-7.2704 7.2704l-167.1168 0q-7.2704 0-7.2704-7.2704l0-1.9456q0-7.2704 7.2704-7.2704Z" fill="#FFFFFF" p-id="15351"></path><path d="M499.4048 412.9792m8.8064 0l8.4992 0q8.8064 0 8.8064 8.8064l0 29.5936q0 8.8064-8.8064 8.8064l-8.4992 0q-8.8064 0-8.8064-8.8064l0-29.5936q0-8.8064 8.8064-8.8064Z" fill="#FFFFFF" p-id="15352"></path><path d="M500.224 544.0512m8.8064 0l8.4992 0q8.8064 0 8.8064 8.8064l0 29.5936q0 8.8064-8.8064 8.8064l-8.4992 0q-8.8064 0-8.8064-8.8064l0-29.5936q0-8.8064 8.8064-8.8064Z" fill="#FFA726" p-id="15353"></path><path d="M500.224 681.0624m8.8064 0l8.4992 0q8.8064 0 8.8064 8.8064l0 29.5936q0 8.8064-8.8064 8.8064l-8.4992 0q-8.8064 0-8.8064-8.8064l0-29.5936q0-8.8064 8.8064-8.8064Z" fill="#FFFFFF" p-id="15354"></path><path d="M476.9792 296.96m10.24 0l49.7664 0q10.24 0 10.24 10.24l0 31.8464q0 10.24-10.24 10.24l-49.7664 0q-10.24 0-10.24-10.24l0-31.8464q0-10.24 10.24-10.24Z" fill="#3D99D8" p-id="15355"></path><path d="M508.1088 192.3072h10.3424v48.7424h-10.3424z" fill="#FFFFFF" p-id="15356"></path></svg>